<mxfile host="app.diagrams.net" modified="2024-04-05T16:46:36.871Z" agent="Mozilla/5.0 (Windows NT 10.0; Win64; x64) AppleWebKit/537.36 (KHTML, like Gecko) Chrome/123.0.0.0 Safari/537.36" etag="S0JoQmbuX7iUHB-CLZt0" version="24.2.2" type="github">
  <diagram name="Page-1" id="gTk41L_0AFUIe82PTTna">
    <mxGraphModel dx="713" dy="322" grid="1" gridSize="10" guides="1" tooltips="1" connect="1" arrows="1" fold="1" page="1" pageScale="1" pageWidth="827" pageHeight="1169" math="0" shadow="0">
      <root>
        <mxCell id="0" />
        <mxCell id="1" parent="0" />
        <mxCell id="MM8oFnp2wKXgPTAVGv7q-9" value="" style="edgeStyle=orthogonalEdgeStyle;rounded=0;orthogonalLoop=1;jettySize=auto;html=1;entryX=0;entryY=0.5;entryDx=0;entryDy=0;shadow=0;" edge="1" parent="1" source="MM8oFnp2wKXgPTAVGv7q-10" target="MM8oFnp2wKXgPTAVGv7q-14">
          <mxGeometry relative="1" as="geometry">
            <mxPoint x="110" y="190" as="targetPoint" />
          </mxGeometry>
        </mxCell>
        <mxCell id="MM8oFnp2wKXgPTAVGv7q-10" value="Outlook mails" style="whiteSpace=wrap;html=1;shadow=0;" vertex="1" parent="1">
          <mxGeometry x="140" y="165" width="90" height="50" as="geometry" />
        </mxCell>
        <mxCell id="MM8oFnp2wKXgPTAVGv7q-11" value="" style="edgeStyle=orthogonalEdgeStyle;rounded=0;orthogonalLoop=1;jettySize=auto;html=1;shadow=0;" edge="1" parent="1" source="MM8oFnp2wKXgPTAVGv7q-14" target="MM8oFnp2wKXgPTAVGv7q-15">
          <mxGeometry relative="1" as="geometry" />
        </mxCell>
        <mxCell id="MM8oFnp2wKXgPTAVGv7q-12" value="" style="edgeStyle=orthogonalEdgeStyle;rounded=0;orthogonalLoop=1;jettySize=auto;html=1;shadow=0;" edge="1" parent="1" source="MM8oFnp2wKXgPTAVGv7q-14" target="MM8oFnp2wKXgPTAVGv7q-16">
          <mxGeometry relative="1" as="geometry" />
        </mxCell>
        <mxCell id="MM8oFnp2wKXgPTAVGv7q-13" value="" style="edgeStyle=orthogonalEdgeStyle;rounded=0;orthogonalLoop=1;jettySize=auto;html=1;shadow=0;" edge="1" parent="1" source="MM8oFnp2wKXgPTAVGv7q-14" target="MM8oFnp2wKXgPTAVGv7q-17">
          <mxGeometry relative="1" as="geometry" />
        </mxCell>
        <mxCell id="MM8oFnp2wKXgPTAVGv7q-14" value="Shuffle&lt;br&gt;Receive Wazuh Alert &amp;amp; Send Responsive Actions" style="whiteSpace=wrap;html=1;shadow=0;" vertex="1" parent="1">
          <mxGeometry x="337.5" y="165" width="170" height="50" as="geometry" />
        </mxCell>
        <mxCell id="MM8oFnp2wKXgPTAVGv7q-15" value="Virustotal and Yara&lt;br&gt;Enrich IOCs" style="whiteSpace=wrap;html=1;shadow=0;" vertex="1" parent="1">
          <mxGeometry x="337.5" y="40" width="170" height="50" as="geometry" />
        </mxCell>
        <mxCell id="MM8oFnp2wKXgPTAVGv7q-16" value="TheHive&lt;br&gt;Create Alert &amp;amp; Case Management" style="whiteSpace=wrap;html=1;" vertex="1" parent="1">
          <mxGeometry x="337.5" y="290" width="170" height="50" as="geometry" />
        </mxCell>
        <mxCell id="MM8oFnp2wKXgPTAVGv7q-17" value="Email&lt;br&gt;Send Email &amp;amp; Responsive Actions" style="whiteSpace=wrap;html=1;shadow=0;" vertex="1" parent="1">
          <mxGeometry x="580" y="165" width="170" height="50" as="geometry" />
        </mxCell>
      </root>
    </mxGraphModel>
  </diagram>
</mxfile>
